<svg width="39" height="43" viewBox="0 0 39 43" fill="none" xmlns="http://www.w3.org/2000/svg">
<g filter="url(#filter0_d_3898_269)">
<mask id="path-1-outside-1_3898_269" maskUnits="userSpaceOnUse" x="10" y="9" width="19" height="28" fill="black">
<rect fill="white" x="10" y="9" width="19" height="28"/>
<path d="M12.0748 16.144C12.0748 14.7573 12.7041 13.5947 13.9628 12.656C15.2214 11.7173 17.0134 11.248 19.3388 11.248C21.6854 11.248 23.4881 11.696 24.7468 12.592C26.0268 13.488 26.6667 14.8107 26.6667 16.56C26.6667 17.712 26.3788 18.736 25.8028 19.632C25.2481 20.5067 24.4694 21.4027 23.4668 22.32L18.6348 26.608V28.464H17.8348V21.744C17.8348 21.3813 17.9521 21.0827 18.1868 20.848L20.1708 18.832C20.7894 18.2133 21.2161 17.6373 21.4508 17.104C21.6854 16.5493 21.8028 15.8347 21.8028 14.96C21.8028 12.8907 20.8428 11.856 18.9228 11.856C18.0054 11.856 17.3334 12.1013 16.9068 12.592C16.4801 13.0827 16.2668 13.552 16.2668 14C16.2668 14.448 16.3308 14.8427 16.4588 15.184H17.4828C17.6534 15.632 17.7388 16.176 17.7388 16.816C17.7388 17.4347 17.4721 17.9787 16.9388 18.448C16.4054 18.896 15.7014 19.12 14.8268 19.12C13.9521 19.12 13.2694 18.8427 12.7788 18.288C12.3094 17.712 12.0748 16.9973 12.0748 16.144ZM18.1548 34.32C17.3654 34.32 16.7681 34.096 16.3628 33.648C15.9788 33.1787 15.7868 32.6027 15.7868 31.92C15.7868 31.216 16.0001 30.64 16.4268 30.192C16.8534 29.7227 17.4401 29.488 18.1868 29.488C18.9334 29.488 19.5308 29.6907 19.9788 30.096C20.4268 30.48 20.6508 31.056 20.6508 31.824C20.6508 32.592 20.4374 33.2 20.0108 33.648C19.5841 34.096 18.9654 34.32 18.1548 34.32Z"/>
</mask>
<path d="M12.0748 16.144C12.0748 14.7573 12.7041 13.5947 13.9628 12.656C15.2214 11.7173 17.0134 11.248 19.3388 11.248C21.6854 11.248 23.4881 11.696 24.7468 12.592C26.0268 13.488 26.6667 14.8107 26.6667 16.56C26.6667 17.712 26.3788 18.736 25.8028 19.632C25.2481 20.5067 24.4694 21.4027 23.4668 22.32L18.6348 26.608V28.464H17.8348V21.744C17.8348 21.3813 17.9521 21.0827 18.1868 20.848L20.1708 18.832C20.7894 18.2133 21.2161 17.6373 21.4508 17.104C21.6854 16.5493 21.8028 15.8347 21.8028 14.96C21.8028 12.8907 20.8428 11.856 18.9228 11.856C18.0054 11.856 17.3334 12.1013 16.9068 12.592C16.4801 13.0827 16.2668 13.552 16.2668 14C16.2668 14.448 16.3308 14.8427 16.4588 15.184H17.4828C17.6534 15.632 17.7388 16.176 17.7388 16.816C17.7388 17.4347 17.4721 17.9787 16.9388 18.448C16.4054 18.896 15.7014 19.12 14.8268 19.12C13.9521 19.12 13.2694 18.8427 12.7788 18.288C12.3094 17.712 12.0748 16.9973 12.0748 16.144ZM18.1548 34.32C17.3654 34.32 16.7681 34.096 16.3628 33.648C15.9788 33.1787 15.7868 32.6027 15.7868 31.92C15.7868 31.216 16.0001 30.64 16.4268 30.192C16.8534 29.7227 17.4401 29.488 18.1868 29.488C18.9334 29.488 19.5308 29.6907 19.9788 30.096C20.4268 30.48 20.6508 31.056 20.6508 31.824C20.6508 32.592 20.4374 33.2 20.0108 33.648C19.5841 34.096 18.9654 34.32 18.1548 34.32Z" fill="#BFECFF"/>
<path d="M13.9628 12.656L12.7671 11.0527L12.7671 11.0527L13.9628 12.656ZM24.7468 12.592L23.5869 14.2213L23.5933 14.2259L23.5998 14.2305L24.7468 12.592ZM25.8028 19.632L24.1204 18.5505L24.1137 18.5609L25.8028 19.632ZM23.4668 22.32L24.7942 23.8159L24.8056 23.8058L24.8168 23.7956L23.4668 22.32ZM18.6348 26.608L17.3073 25.1121L16.6348 25.7089V26.608H18.6348ZM18.6348 28.464V30.464H20.6348V28.464H18.6348ZM17.8348 28.464H15.8348V30.464H17.8348V28.464ZM18.1868 20.848L19.601 22.2622L19.6066 22.2566L19.6122 22.2509L18.1868 20.848ZM20.1708 18.832L18.7565 17.4178L18.7509 17.4234L18.7453 17.4291L20.1708 18.832ZM21.4508 17.104L23.2814 17.9095L23.2871 17.8964L23.2927 17.8833L21.4508 17.104ZM16.9068 12.592L15.3975 11.2796L15.3975 11.2796L16.9068 12.592ZM16.4588 15.184L14.5861 15.8862L15.0727 17.184H16.4588V15.184ZM17.4828 15.184L19.3517 14.472L18.8611 13.184H17.4828V15.184ZM16.9388 18.448L18.2251 19.9794L18.2427 19.9646L18.26 19.9494L16.9388 18.448ZM12.7788 18.288L11.2283 19.5513L11.2539 19.5828L11.2808 19.6131L12.7788 18.288ZM16.3628 33.648L14.8148 34.9145L14.8463 34.953L14.8797 34.9898L16.3628 33.648ZM16.4268 30.192L17.875 31.5713L17.891 31.5545L17.9066 31.5373L16.4268 30.192ZM19.9788 30.096L18.6369 31.5791L18.6568 31.5971L18.6772 31.6145L19.9788 30.096ZM20.0108 33.648L21.459 35.0273L21.459 35.0273L20.0108 33.648ZM14.0748 16.144C14.0748 15.4787 14.3292 14.8777 15.1584 14.2593L12.7671 11.0527C11.079 12.3117 10.0748 14.036 10.0748 16.144H14.0748ZM15.1584 14.2593C15.9411 13.6756 17.2465 13.248 19.3388 13.248V9.248C16.7804 9.248 14.5018 9.7591 12.7671 11.0527L15.1584 14.2593ZM19.3388 13.248C21.4725 13.248 22.8013 13.6621 23.5869 14.2213L25.9066 10.9627C24.1748 9.72989 21.8983 9.248 19.3388 9.248V13.248ZM23.5998 14.2305C24.2749 14.703 24.6667 15.3725 24.6667 16.56H28.6667C28.6667 14.2488 27.7786 12.273 25.8937 10.9535L23.5998 14.2305ZM24.6667 16.56C24.6667 17.3611 24.4721 18.0034 24.1204 18.5505L27.4851 20.7135C28.2854 19.4686 28.6667 18.0629 28.6667 16.56H24.6667ZM24.1137 18.5609C23.6778 19.2483 23.0271 20.0115 22.1167 20.8444L24.8168 23.7956C25.9117 22.7938 26.8183 21.765 27.4918 20.7031L24.1137 18.5609ZM22.1393 20.8241L17.3073 25.1121L19.9622 28.1039L24.7942 23.8159L22.1393 20.8241ZM16.6348 26.608V28.464H20.6348V26.608H16.6348ZM18.6348 26.464H17.8348V30.464H18.6348V26.464ZM19.8348 28.464V21.744H15.8348V28.464H19.8348ZM19.8348 21.744C19.8348 21.7806 19.8282 21.8673 19.7843 21.9793C19.7389 22.0948 19.6713 22.1919 19.601 22.2622L16.7725 19.4338C16.1261 20.0802 15.8348 20.9051 15.8348 21.744H19.8348ZM19.6122 22.2509L21.5962 20.2349L18.7453 17.4291L16.7613 19.4451L19.6122 22.2509ZM21.585 20.2462C22.2996 19.5315 22.9099 18.7538 23.2814 17.9095L19.6201 16.2985C19.5223 16.5209 19.2792 16.8951 18.7565 17.4178L21.585 20.2462ZM23.2927 17.8833C23.6676 16.997 23.8028 15.9913 23.8028 14.96H19.8028C19.8028 15.678 19.7032 16.1017 19.6088 16.3247L23.2927 17.8833ZM23.8028 14.96C23.8028 13.6527 23.5026 12.2996 22.5489 11.2717C21.5689 10.2155 20.2311 9.856 18.9228 9.856V13.856C19.2285 13.856 19.4108 13.8978 19.5065 13.9322C19.5912 13.9626 19.6123 13.9877 19.6166 13.9923C19.6229 13.9991 19.8028 14.198 19.8028 14.96H23.8028ZM18.9228 9.856C17.6727 9.856 16.3402 10.1955 15.3975 11.2796L18.416 13.9044C18.3855 13.9394 18.366 13.9372 18.4166 13.9187C18.4807 13.8953 18.6352 13.856 18.9228 13.856V9.856ZM15.3975 11.2796C14.7945 11.9731 14.2668 12.8921 14.2668 14H18.2668C18.2668 14.1015 18.2412 14.1534 18.2475 14.1396C18.2566 14.1196 18.2979 14.0402 18.416 13.9044L15.3975 11.2796ZM14.2668 14C14.2668 14.6348 14.3571 15.2755 14.5861 15.8862L18.3314 14.4818C18.3044 14.4098 18.2668 14.2612 18.2668 14H14.2668ZM16.4588 17.184H17.4828V13.184H16.4588V17.184ZM15.6138 15.896C15.6742 16.0545 15.7388 16.3426 15.7388 16.816H19.7388C19.7388 16.0094 19.6327 15.2095 19.3517 14.472L15.6138 15.896ZM15.7388 16.816C15.7388 16.8258 15.7378 16.8256 15.7394 16.8189C15.7409 16.812 15.743 16.8075 15.7429 16.8077C15.7426 16.8083 15.7368 16.8201 15.719 16.8427C15.7008 16.8658 15.6692 16.9011 15.6175 16.9466L18.26 19.9494C19.1539 19.1628 19.7388 18.0976 19.7388 16.816H15.7388ZM15.6524 16.9166C15.5639 16.9909 15.3546 17.12 14.8268 17.12V21.12C16.0482 21.12 17.2469 20.8011 18.2251 19.9794L15.6524 16.9166ZM14.8268 17.12C14.4112 17.12 14.3184 17.0099 14.2767 16.9629L11.2808 19.6131C12.2205 20.6754 13.493 21.12 14.8268 21.12V17.12ZM14.3292 17.0247C14.1931 16.8576 14.0748 16.609 14.0748 16.144H10.0748C10.0748 17.3856 10.4258 18.5664 11.2283 19.5513L14.3292 17.0247ZM18.1548 32.32C17.945 32.32 17.8449 32.2898 17.817 32.2793C17.8042 32.2746 17.806 32.2738 17.8162 32.2806C17.8268 32.2877 17.8376 32.2971 17.8458 32.3062L14.8797 34.9898C15.7718 35.9758 16.9834 36.32 18.1548 36.32V32.32ZM17.9107 32.3815C17.8558 32.3144 17.7868 32.2025 17.7868 31.92H13.7868C13.7868 33.0028 14.1017 34.0429 14.8148 34.9145L17.9107 32.3815ZM17.7868 31.92C17.7868 31.6531 17.852 31.5955 17.875 31.5713L14.9785 28.8127C14.1482 29.6845 13.7868 30.7789 13.7868 31.92H17.7868ZM17.9066 31.5373C17.911 31.5325 17.914 31.5297 17.9155 31.5284C17.917 31.5271 17.9177 31.5266 17.9179 31.5265C17.918 31.5264 17.9186 31.526 17.9199 31.5253C17.9212 31.5246 17.9243 31.5231 17.9295 31.521C17.9479 31.5136 18.0225 31.488 18.1868 31.488V27.488C16.9858 27.488 15.8203 27.8859 14.9469 28.8467L17.9066 31.5373ZM18.1868 31.488C18.3806 31.488 18.4945 31.5144 18.5522 31.534C18.6038 31.5515 18.6244 31.5678 18.6369 31.5791L21.3206 28.6129C20.4233 27.8011 19.3071 27.488 18.1868 27.488V31.488ZM18.6772 31.6145C18.6626 31.6021 18.6472 31.5854 18.6343 31.5669C18.6216 31.5488 18.6176 31.5379 18.6187 31.5409C18.622 31.5492 18.6508 31.6299 18.6508 31.824H22.6508C22.6508 30.6603 22.2969 29.4488 21.2803 28.5775L18.6772 31.6145ZM18.6508 31.824C18.6508 32.0246 18.6228 32.139 18.6036 32.1938C18.5867 32.2417 18.5722 32.2585 18.5625 32.2687L21.459 35.0273C22.3205 34.1227 22.6508 32.9753 22.6508 31.824H18.6508ZM18.5625 32.2687C18.5762 32.2543 18.583 32.258 18.5459 32.2715C18.4989 32.2885 18.3799 32.32 18.1548 32.32V36.32C19.3348 36.32 20.5476 35.9843 21.459 35.0273L18.5625 32.2687Z" fill="black" mask="url(#path-1-outside-1_3898_269)"/>
</g>
<defs>
<filter id="filter0_d_3898_269" x="12.0752" y="11.248" width="15.5918" height="24.0723" filterUnits="userSpaceOnUse" color-interpolation-filters="sRGB">
<feFlood flood-opacity="0" result="BackgroundImageFix"/>
<feColorMatrix in="SourceAlpha" type="matrix" values="0 0 0 0 0 0 0 0 0 0 0 0 0 0 0 0 0 0 127 0" result="hardAlpha"/>
<feOffset dx="1" dy="1"/>
<feComposite in2="hardAlpha" operator="out"/>
<feColorMatrix type="matrix" values="0 0 0 0 0 0 0 0 0 0 0 0 0 0 0 0 0 0 1 0"/>
<feBlend mode="normal" in2="BackgroundImageFix" result="effect1_dropShadow_3898_269"/>
<feBlend mode="normal" in="SourceGraphic" in2="effect1_dropShadow_3898_269" result="shape"/>
</filter>
</defs>
</svg>
